<svg xmlns="http://www.w3.org/2000/svg" viewBox="0 0 140 49"><defs><style>.cls-1{fill:#eaeaea;}.cls-2{fill:#5200ff;stroke:#5200ff;stroke-width:3px;}.cls-3{fill:#fff;}</style></defs><g id="Layer_2" data-name="Layer 2"><g id="Layer_1-2" data-name="Layer 1"><path class="cls-1" d="M91,0h43a6,6,0,0,1,6,6V43a6,6,0,0,1-6,6H91Z"/><path d="M100.55,33.69a1.32,1.32,0,0,1-.43-1.16,3.4,3.4,0,0,1,.88-2q.28-.35,2.92-3.15a42.51,42.51,0,0,0,3.49-4.08,8.19,8.19,0,0,0,1.6-4.55,3.13,3.13,0,0,0-.76-2.14,2.83,2.83,0,0,0-2.24-.87c-.73,0-1.56.59-2.48,1.79s-1.58,1.8-2,1.8a1,1,0,0,1-.94-.52,2.23,2.23,0,0,1-.31-1.17,4.11,4.11,0,0,1,2-3.2A8,8,0,0,1,107.19,13h.57a6.41,6.41,0,0,1,2.3.46q3.5,1.31,3.5,5.42a7.48,7.48,0,0,1-1.81,4.45,39.14,39.14,0,0,1-3.81,3.94C106,29,105.09,30,105.09,30.3s.66.39,2,.39a14.64,14.64,0,0,0,2.91-.21,4.75,4.75,0,0,0,1.94-1,2.88,2.88,0,0,1,1.54-.78c.53,0,.8.46.8,1.37,0,1.79-.31,2.94-.92,3.47-.35.29-1.41.44-3.21.44h-.5l-.51,0h-1l-4.62-.09-1,0-1,0A1.66,1.66,0,0,1,100.55,33.69Zm19.62-14.42a2,2,0,0,0,.35,1.11,1,1,0,0,0,.84.48l.47,0,.48,0h1.35a5.55,5.55,0,0,1,2.28.56,6.53,6.53,0,0,1,3.65,3.87,7.72,7.72,0,0,1,.36,2.54,6.56,6.56,0,0,1-.64,2.79A6.85,6.85,0,0,1,125,34.33a10.48,10.48,0,0,1-3.26.45,8.12,8.12,0,0,1-3.6-.84q-1.71-.84-1.71-2.13a2.14,2.14,0,0,1,.25-1.14,1.07,1.07,0,0,1,1-.4,3.53,3.53,0,0,1,1.94,1,3.84,3.84,0,0,0,2.4,1,3.36,3.36,0,0,0,2.72-1.14,4.16,4.16,0,0,0,1-2.77,4.45,4.45,0,0,0-1.3-3.45,5.48,5.48,0,0,0-3.85-1.21l-.44,0-1.1,0c-1.07,0-1.61-1-1.61-2.94a23.5,23.5,0,0,1,.36-4.16,8.35,8.35,0,0,1,.75-2.56,2.4,2.4,0,0,1,1.64-.77c.27,0,1-.06,2.32-.06s2.2,0,2.75-.08l.93-.11,1.4-.15h.43c.84,0,1.25.39,1.25,1.17,0,1.69-.93,2.53-2.81,2.53l-3.44-.11a3.33,3.33,0,0,0-2.14.53A3.14,3.14,0,0,0,120.17,19.27Z"/><path class="cls-2" d="M6,1.5H89.5v46H6A4.49,4.49,0,0,1,1.5,43V6A4.49,4.49,0,0,1,6,1.5Z"/><path class="cls-3" d="M35.56,22.36q1.45,6.08,1.67,6.07T39,22.28a65.54,65.54,0,0,1,2.17-7.56,5,5,0,0,1,1.3-1.91,2.92,2.92,0,0,1,1.81-.51c.61,0,.91.4.91,1.21,0,.39-.49,2.85-1.49,7.38A103.88,103.88,0,0,1,40.5,32.65c-.63,1.8-1.71,2.7-3.25,2.7A1.78,1.78,0,0,1,36,34.84c-.82-.75-1.84-3.23-3.06-7.42S31,21.11,30.86,21.11a51,51,0,0,0-1.64,5A59.39,59.39,0,0,1,27,32.48c-.8,1.63-1.6,2.44-2.4,2.44-1.51,0-2.56-.85-3.16-2.54l-1-3.42c-.15-.56-.35-1.24-.58-2.05s-.49-1.76-.82-2.86-.55-1.92-.7-2.47l-.61-2.35c-.21-.79-.49-1.8-.84-3a11.49,11.49,0,0,1-.51-2.73c0-.61.37-.91,1.13-.91q2.28,0,3.38,2.65.61,1.49,2.22,7.42a55.46,55.46,0,0,0,1.74,5.91,26,26,0,0,0,1.37-4q1.23-4,1.88-6.73A21.48,21.48,0,0,1,29,14.71c.38-.69,1.29-1,2.75-1a1.7,1.7,0,0,1,1.69,1.08A57.18,57.18,0,0,1,35.56,22.36Zm22.14,2.5v-.29a2.67,2.67,0,0,0-.91-2.14,3.2,3.2,0,0,0-2.17-.79H54.2a3.45,3.45,0,0,0-3.51,3.47v.28c0,.3.37.46,1.11.46h.88l.1,0,3.62-.17.38,0C57.39,25.63,57.7,25.37,57.7,24.86Zm-1.4,3.72q-5.52,0-5.52,1.17a2.81,2.81,0,0,0,1.08,2.32,4.2,4.2,0,0,0,2.71.85,11.76,11.76,0,0,0,3.16-.42,9.15,9.15,0,0,1,2.06-.45,1.11,1.11,0,0,1,.9.45,1.9,1.9,0,0,1,.38,1.3c0,.57-.63,1.15-1.88,1.74a8.89,8.89,0,0,1-3.85.89H54.09a9.09,9.09,0,0,1-3.11-.6,6.33,6.33,0,0,1-4.15-4.24,11.7,11.7,0,0,1-.53-3.45v-.82q0-6.26,4.41-8.14a9.54,9.54,0,0,1,3.73-.7,7.49,7.49,0,0,1,5.38,1.78,6,6,0,0,1,1.33,2.19,7,7,0,0,1,.57,2.61v1.15a1.89,1.89,0,0,1-1.06,1.93A13.71,13.71,0,0,1,56.3,28.58ZM71,33h.68a3.33,3.33,0,0,0,2.87-1.56,6.28,6.28,0,0,0,.79-3.52v-.72l0-.19,0-.7v-.36a3.87,3.87,0,0,1,0-.49,4.38,4.38,0,0,0-.9-2.77A2.83,2.83,0,0,0,72,21.49H71.3a3.07,3.07,0,0,0-2.79,1.42,7.16,7.16,0,0,0-.6,3.55v1.68l0,.17,0,1c0,.12,0,.23,0,.33a3.68,3.68,0,0,0,.77,2.46A2.72,2.72,0,0,0,71,33Zm1.6,3.09h-.41a8.49,8.49,0,0,1-2.63-.5c-1-.33-1.5-.49-1.54-.49a5.92,5.92,0,0,0-.56.32,2.57,2.57,0,0,1-1.4.33c-1.06,0-1.71-.25-1.93-.76A13.35,13.35,0,0,1,63.76,31v-.8l0-.41V24.21l0-.81V17.51a56.93,56.93,0,0,1,.16-6.1q.16-.81,1.65-.81H66c1,0,1.6.25,1.88.74a11.73,11.73,0,0,1,.41,4.14c0,2.26.27,3.4.82,3.4a4,4,0,0,0,.94-.24c.48-.16.9-.29,1.26-.38a9.49,9.49,0,0,1,2-.14,5.19,5.19,0,0,1,2.63.69,5.35,5.35,0,0,1,1.93,1.79,10.77,10.77,0,0,1,1.62,6v.86q0,6-3.91,7.89A6.87,6.87,0,0,1,72.56,36.07Z"/></g></g></svg>