<svg width="151" height="156" viewBox="0 0 151 156" fill="none" xmlns="http://www.w3.org/2000/svg">
<g clip-path="url(#clip0_602_153)">
<path d="M37.0249 153.27V155.406H33.8013V155.114H34.2666C34.7893 155.114 35.2546 154.955 35.6626 154.632C36.0707 154.309 36.3101 153.858 36.3876 153.27H37.0283H37.0249ZM38.6503 134.514H38.9133L39.6383 136.65L37.8646 155.406H36.1212L38.6503 134.514ZM38.0096 153.739V153.885C38.0096 154.197 38.1209 154.486 38.3434 154.747C38.566 155.012 38.8324 155.141 39.1426 155.141H39.5776V155.406H37.8039V153.739H38.0062H38.0096ZM38.9133 134.514L47.657 151.895L46.669 155.875L38.3029 139.021L38.9133 134.514ZM55.5004 134.514L55.733 136.885L48.0043 152.802C47.6738 153.484 47.4277 154.058 47.2625 154.527C47.0972 154.995 46.9961 155.444 46.959 155.872H46.669L46.0283 153.793L55.5004 134.511V134.514ZM55.1227 153.739H55.325V155.406H53.5513V155.141H53.9863C54.3168 155.141 54.5865 155.009 54.799 154.747C55.0114 154.483 55.1193 154.197 55.1193 153.885V153.739H55.1227ZM55.7634 134.514L58.3497 155.406H55.2711L53.73 139.109L55.5037 134.514H55.7667H55.7634ZM57.4764 153.27H58.0867C58.1845 153.854 58.434 154.309 58.842 154.632C59.2501 154.955 59.7053 155.114 60.2077 155.114H60.6731V155.406H57.4764V153.27Z" fill="url(#paint0_linear_602_153)"/>
<path d="M64.8846 153.328C64.6722 153.895 64.6992 154.333 64.9723 154.646C65.2421 154.958 65.5523 155.114 65.903 155.114H66.1357V155.406H60.501V155.114H60.7336C61.1214 155.114 61.5261 154.978 61.9543 154.703C62.3792 154.432 62.7468 153.973 63.057 153.328H64.888H64.8846ZM70.435 137.323L70.6104 139.839L64.072 155.318H62.1263L68.9817 140.511C69.0019 140.474 69.0693 140.321 69.184 140.056C69.2986 139.791 69.4301 139.486 69.5751 139.136C69.7201 138.786 69.855 138.443 69.9832 138.11C70.1079 137.778 70.1821 137.516 70.2023 137.319H70.435V137.323ZM73.571 148.94V149.905H65.9603V148.94H73.571ZM70.435 137.323L78.6291 155.23H75.4627L69.5347 140.834L70.435 137.323ZM74.704 153.328H77.7827C78.0727 153.973 78.4301 154.432 78.8584 154.703C79.2832 154.975 79.6913 155.114 80.079 155.114H80.3117V155.406H73.4833V155.114H73.716C74.0465 155.114 74.3466 154.958 74.6163 154.646C74.8861 154.333 74.9165 153.895 74.704 153.328Z" fill="url(#paint1_linear_602_153)"/>
<path d="M98.5311 148.03L98.4434 152.184C97.9781 152.907 97.3644 153.539 96.5989 154.085C95.8335 154.632 94.9534 155.057 93.9553 155.359C92.9571 155.661 91.868 155.814 90.6877 155.814C88.6544 155.793 86.8976 155.413 85.4139 154.673C83.9335 153.932 82.7938 152.883 82.0014 151.528C81.2056 150.173 80.811 148.54 80.811 146.628C80.811 144.716 81.2089 143.079 82.0014 141.714C82.7938 140.348 83.9335 139.296 85.4139 138.552C86.8942 137.812 88.6544 137.442 90.6877 137.442C91.9287 137.442 93.1426 137.588 94.3329 137.88C95.5233 138.172 96.545 138.572 97.3981 139.078L97.8331 143.381H97.5701C97.125 141.588 96.2955 140.308 95.0849 139.547C93.8743 138.786 92.4345 138.406 90.772 138.406C89.2816 138.406 88.007 138.742 86.9515 139.415C85.8961 140.087 85.0834 141.034 84.5102 142.254C83.9369 143.473 83.6537 144.923 83.6537 146.597C83.6537 148.271 83.9403 149.698 84.5102 150.927C85.08 152.156 85.8893 153.104 86.9347 153.766C87.98 154.428 89.231 154.781 90.681 154.819C92.1141 154.819 93.3685 154.585 94.4442 154.116C95.5199 153.647 96.3899 152.917 97.0575 151.922C97.7252 150.927 98.1366 149.63 98.2917 148.03H98.5244H98.5311Z" fill="url(#paint2_linear_602_153)"/>
<path d="M103.903 153.328C103.69 153.895 103.717 154.333 103.99 154.646C104.26 154.958 104.57 155.114 104.921 155.114H105.154V155.406H99.519V155.114H99.7517C100.139 155.114 100.544 154.978 100.972 154.703C101.397 154.432 101.765 153.973 102.075 153.328H103.906H103.903ZM109.453 137.323L109.628 139.839L103.09 155.318H101.144L108 140.511C108.02 140.474 108.087 140.321 108.202 140.056C108.317 139.791 108.448 139.486 108.593 139.136C108.738 138.786 108.873 138.443 109.001 138.11C109.126 137.778 109.2 137.516 109.22 137.319H109.453V137.323ZM112.592 148.94V149.905H104.982V148.94H112.592ZM109.453 137.323L117.647 155.23H114.481L108.553 140.834L109.453 137.323ZM113.725 153.328H116.804C117.094 153.973 117.452 154.432 117.88 154.703C118.305 154.975 118.713 155.114 119.1 155.114H119.333V155.406H112.505V155.114H112.737C113.068 155.114 113.368 154.958 113.638 154.646C113.908 154.333 113.938 153.895 113.725 153.328Z" fill="url(#paint3_linear_602_153)"/>
<path d="M79.6003 97.6847C79.4755 94.1529 79.0979 84.8275 85.6093 77.6348C95.2904 66.9408 105.14 65.8405 114.454 66.9747C114.454 66.9747 109.146 72.4525 107.497 80.0765C105.764 88.0876 105.005 89.6226 102.196 93.1782C98.0757 98.3911 94.9768 96.418 87.9495 102.796C85.3092 105.193 81.4954 108.742 79.833 114.57C78.7236 118.455 78.9866 121.885 79.3373 124.021L77.6344 125.155C77.6344 125.155 77.3714 94.9475 102.378 74.9791C102.378 74.9791 85.96 79.2784 79.661 100.3L79.6037 97.6847H79.6003Z" fill="url(#paint4_linear_602_153)"/>
<path d="M71.5346 97.3926C71.6593 93.837 72.037 84.4573 65.5256 77.2204C55.8445 66.4619 45.9947 65.3548 36.6812 66.4959C36.6812 66.4959 41.9887 72.0076 43.6377 79.6757C43.6815 79.8795 43.7253 80.0799 43.7726 80.2836C45.3979 87.2318 49.7815 93.1952 55.8006 96.9613C58.0599 98.3741 60.6665 100.232 63.1854 102.534C65.8257 104.945 69.6395 108.518 71.3019 114.379C72.4113 118.288 72.1483 121.739 71.7976 123.888L73.5005 125.033C73.5005 125.033 73.7635 94.6419 48.7564 74.5512C48.7564 74.5512 65.1749 78.8777 71.4739 100.025L71.5312 97.3926H71.5346Z" fill="url(#paint5_linear_602_153)"/>
<path d="M78.9765 71.0804C79.6678 69.7288 80.8075 67.8406 82.6251 65.9694C84.8911 63.6398 87.0694 62.5191 89.359 61.2626C92.8424 59.3472 96.2616 57.3096 99.5797 55.1192C107.592 49.8283 112.178 32.777 112.178 32.777C101.519 32.9672 93.7056 37.9219 92.3669 38.8524C86.6176 42.8563 83.1275 51.9508 82.0687 55.6796C82.0687 55.6796 89.993 45.5459 101.876 42.6729C101.876 42.6729 81.1582 56.4471 78.9731 71.0838L78.9765 71.0804Z" fill="url(#paint6_linear_602_153)"/>
<path d="M71.6928 71.0804C71.0015 69.7288 69.8618 67.8406 68.0443 65.9694C65.7783 63.6398 63.5999 62.5191 61.3103 61.2626C57.827 59.3472 54.4077 57.3096 51.0896 55.1192C43.0777 49.8283 38.4917 32.777 38.4917 32.777C49.1507 32.9672 56.9637 37.9219 58.3024 38.8524C64.0518 42.8563 67.5418 51.9508 68.6007 55.6796C68.6007 55.6796 60.6764 45.5459 48.7933 42.6729C48.7933 42.6729 69.5111 56.4471 71.6962 71.0838L71.6928 71.0804Z" fill="url(#paint7_linear_602_153)"/>
<path d="M15.5248 51.0747H13.0093C11.6237 51.0747 10.5005 52.2059 10.5005 53.6013V85.6935C10.5005 87.0889 11.6237 88.2201 13.0093 88.2201H15.5248C16.9104 88.2201 18.0336 87.0889 18.0336 85.6935V53.6013C18.0336 52.2059 16.9104 51.0747 15.5248 51.0747Z" fill="url(#paint8_linear_602_153)"/>
<path d="M27.5834 42.4658H25.0679C23.6823 42.4658 22.5591 43.597 22.5591 44.9924V94.2989C22.5591 95.6943 23.6823 96.8255 25.0679 96.8255H27.5834C28.969 96.8255 30.0922 95.6943 30.0922 94.2989V44.9924C30.0922 43.597 28.969 42.4658 27.5834 42.4658Z" fill="url(#paint9_linear_602_153)"/>
<path d="M5.77967 65.1579V74.3678C5.77967 77.0133 4.18806 76.8095 2.52565 75.7194C-0.512562 73.726 -1.45336 65.056 3.36529 63.4463C3.80028 63.3003 4.27574 63.2697 4.70736 63.4225C5.21991 63.6059 5.77967 64.0576 5.77967 65.1579Z" fill="url(#paint10_linear_602_153)"/>
<path d="M5.77967 65.1579V74.3678C5.77967 77.0133 4.18806 76.8095 2.52565 75.7194C-0.512562 73.726 -1.45336 65.056 3.36529 63.4463C3.80028 63.3003 4.27574 63.2697 4.70736 63.4225C5.21991 63.6059 5.77967 64.0576 5.77967 65.1579Z" fill="url(#paint11_linear_602_153)"/>
<path d="M135.475 88.22H137.991C139.376 88.22 140.5 87.0888 140.5 85.6934V53.6012C140.5 52.2058 139.376 51.0746 137.991 51.0746H135.475C134.09 51.0746 132.966 52.2058 132.966 53.6012V85.6934C132.966 87.0888 134.09 88.22 135.475 88.22Z" fill="url(#paint12_linear_602_153)"/>
<path d="M123.417 96.8289H125.932C127.318 96.8289 128.441 95.6977 128.441 94.3022V44.9958C128.441 43.6004 127.318 42.4692 125.932 42.4692H123.417C122.031 42.4692 120.908 43.6004 120.908 44.9958V94.3022C120.908 95.6977 122.031 96.8289 123.417 96.8289Z" fill="url(#paint13_linear_602_153)"/>
<path d="M145.22 65.1579V74.3678C145.22 77.0133 146.812 76.8095 148.474 75.7194C151.512 73.726 152.453 65.056 147.635 63.4463C147.2 63.3003 146.724 63.2697 146.293 63.4225C145.78 63.6059 145.22 64.0576 145.22 65.1579Z" fill="url(#paint14_linear_602_153)"/>
<path d="M145.22 65.1579V74.3678C145.22 77.0133 146.812 76.8095 148.474 75.7194C151.512 73.726 152.453 65.056 147.635 63.4463C147.2 63.3003 146.724 63.2697 146.293 63.4225C145.78 63.6059 145.22 64.0576 145.22 65.1579Z" fill="url(#paint15_linear_602_153)"/>
<path d="M75.5272 0.875078C75.5272 0.875078 63.7419 12.5267 63.7554 22.0118C63.7722 32.7906 69.8352 37.725 71.9292 43.6069C72.4283 45.0128 73.3826 47.7874 73.4601 52.4161C73.7636 70.6458 74.4818 115.025 74.4818 115.025L74.8157 114.977C73.4635 81.5571 74.4987 17.7056 76.5826 14.2451C76.9063 25.2278 76.5961 64.8047 76.7243 99.6714C76.994 82.8544 77.6617 56.8479 77.9078 48.3069C78.1371 40.3569 86.0716 35.1237 87.2653 26.7492C88.4016 18.7618 82.1768 5.84342 75.5272 0.868286V0.875078Z" fill="url(#paint16_linear_602_153)"/>
<path d="M15.5248 51.0747H13.0093C11.6237 51.0747 10.5005 52.2059 10.5005 53.6013V85.6935C10.5005 87.0889 11.6237 88.2201 13.0093 88.2201H15.5248C16.9104 88.2201 18.0336 87.0889 18.0336 85.6935V53.6013C18.0336 52.2059 16.9104 51.0747 15.5248 51.0747Z" fill="url(#paint17_linear_602_153)"/>
<path d="M27.5834 42.4658H25.0679C23.6823 42.4658 22.5591 43.597 22.5591 44.9924V94.2989C22.5591 95.6943 23.6823 96.8255 25.0679 96.8255H27.5834C28.969 96.8255 30.0922 95.6943 30.0922 94.2989V44.9924C30.0922 43.597 28.969 42.4658 27.5834 42.4658Z" fill="url(#paint18_linear_602_153)"/>
<path d="M5.77967 65.1579V74.3678C5.77967 77.0133 4.18806 76.8095 2.52565 75.7194C-0.512562 73.726 -1.45336 65.056 3.36529 63.4463C3.80028 63.3003 4.27574 63.2697 4.70736 63.4225C5.21991 63.6059 5.77967 64.0576 5.77967 65.1579Z" fill="url(#paint19_linear_602_153)"/>
<path d="M5.77967 65.1579V74.3678C5.77967 77.0133 4.18806 76.8095 2.52565 75.7194C-0.512562 73.726 -1.45336 65.056 3.36529 63.4463C3.80028 63.3003 4.27574 63.2697 4.70736 63.4225C5.21991 63.6059 5.77967 64.0576 5.77967 65.1579Z" fill="url(#paint20_linear_602_153)"/>
</g>
<defs>
<linearGradient id="paint0_linear_602_153" x1="61.1924" y1="154.503" x2="35.6031" y2="139.833" gradientUnits="userSpaceOnUse">
<stop stop-color="#EDD4B6"/>
<stop offset="0.33" stop-color="#CDB193"/>
<stop offset="0.49" stop-color="#BFA284"/>
<stop offset="0.8" stop-color="#AC8E6F"/>
<stop offset="1" stop-color="#A68768"/>
</linearGradient>
<linearGradient id="paint1_linear_602_153" x1="80.4871" y1="155.097" x2="65.0766" y2="146.264" gradientUnits="userSpaceOnUse">
<stop stop-color="#EDD4B6"/>
<stop offset="0.33" stop-color="#CDB193"/>
<stop offset="0.49" stop-color="#BFA284"/>
<stop offset="0.8" stop-color="#AC8E6F"/>
<stop offset="1" stop-color="#A68768"/>
</linearGradient>
<linearGradient id="paint2_linear_602_153" x1="98.9627" y1="151.28" x2="82.0668" y2="141.593" gradientUnits="userSpaceOnUse">
<stop stop-color="#EDD4B6"/>
<stop offset="0.33" stop-color="#CDB193"/>
<stop offset="0.49" stop-color="#BFA284"/>
<stop offset="0.8" stop-color="#AC8E6F"/>
<stop offset="1" stop-color="#A68768"/>
</linearGradient>
<linearGradient id="paint3_linear_602_153" x1="119.509" y1="155.097" x2="104.095" y2="146.264" gradientUnits="userSpaceOnUse">
<stop stop-color="#EDD4B6"/>
<stop offset="0.33" stop-color="#CDB193"/>
<stop offset="0.49" stop-color="#BFA284"/>
<stop offset="0.8" stop-color="#AC8E6F"/>
<stop offset="1" stop-color="#A68768"/>
</linearGradient>
<linearGradient id="paint4_linear_602_153" x1="99.7213" y1="98.2043" x2="79.7933" y2="86.7801" gradientUnits="userSpaceOnUse">
<stop stop-color="#EDD4B6"/>
<stop offset="0.33" stop-color="#CDB193"/>
<stop offset="0.49" stop-color="#BFA284"/>
<stop offset="0.8" stop-color="#AC8E6F"/>
<stop offset="1" stop-color="#A68768"/>
</linearGradient>
<linearGradient id="paint5_linear_602_153" x1="83.2558" y1="108.019" x2="30.2837" y2="77.6504" gradientUnits="userSpaceOnUse">
<stop stop-color="#EDD4B6"/>
<stop offset="0.33" stop-color="#CDB193"/>
<stop offset="0.49" stop-color="#BFA284"/>
<stop offset="0.8" stop-color="#AC8E6F"/>
<stop offset="1" stop-color="#A68768"/>
</linearGradient>
<linearGradient id="paint6_linear_602_153" x1="101.573" y1="55.4113" x2="85.9557" y2="46.4601" gradientUnits="userSpaceOnUse">
<stop stop-color="#EDD4B6"/>
<stop offset="0.33" stop-color="#CDB193"/>
<stop offset="0.49" stop-color="#BFA284"/>
<stop offset="0.8" stop-color="#AC8E6F"/>
<stop offset="1" stop-color="#A68768"/>
</linearGradient>
<linearGradient id="paint7_linear_602_153" x1="76.9633" y1="61.8874" x2="35.4458" y2="38.0847" gradientUnits="userSpaceOnUse">
<stop stop-color="#EDD4B6"/>
<stop offset="0.33" stop-color="#CDB193"/>
<stop offset="0.49" stop-color="#BFA284"/>
<stop offset="0.8" stop-color="#AC8E6F"/>
<stop offset="1" stop-color="#A68768"/>
</linearGradient>
<linearGradient id="paint8_linear_602_153" x1="24.2854" y1="75.4715" x2="4.18144" y2="63.9465" gradientUnits="userSpaceOnUse">
<stop stop-color="#EDD4B6"/>
<stop offset="0.33" stop-color="#CDB193"/>
<stop offset="0.49" stop-color="#BFA284"/>
<stop offset="0.8" stop-color="#AC8E6F"/>
<stop offset="1" stop-color="#A68768"/>
</linearGradient>
<linearGradient id="paint9_linear_602_153" x1="40.0431" y1="77.6246" x2="12.5114" y2="61.839" gradientUnits="userSpaceOnUse">
<stop stop-color="#EDD4B6"/>
<stop offset="0.33" stop-color="#CDB193"/>
<stop offset="0.49" stop-color="#BFA284"/>
<stop offset="0.8" stop-color="#AC8E6F"/>
<stop offset="1" stop-color="#A68768"/>
</linearGradient>
<linearGradient id="paint10_linear_602_153" x1="7.73882" y1="71.9566" x2="-0.182948" y2="67.4172" gradientUnits="userSpaceOnUse">
<stop stop-color="#EDD4B6"/>
<stop offset="0.33" stop-color="#CDB193"/>
<stop offset="0.49" stop-color="#BFA284"/>
<stop offset="0.8" stop-color="#AC8E6F"/>
<stop offset="1" stop-color="#A68768"/>
</linearGradient>
<linearGradient id="paint11_linear_602_153" x1="7.73882" y1="71.9566" x2="-0.182948" y2="67.4172" gradientUnits="userSpaceOnUse">
<stop stop-color="#EDD4B6"/>
<stop offset="0.33" stop-color="#CDB193"/>
<stop offset="0.49" stop-color="#BFA284"/>
<stop offset="0.8" stop-color="#AC8E6F"/>
<stop offset="1" stop-color="#A68768"/>
</linearGradient>
<linearGradient id="paint12_linear_602_153" x1="146.748" y1="75.4714" x2="126.644" y2="63.9464" gradientUnits="userSpaceOnUse">
<stop stop-color="#EDD4B6"/>
<stop offset="0.33" stop-color="#CDB193"/>
<stop offset="0.49" stop-color="#BFA284"/>
<stop offset="0.8" stop-color="#AC8E6F"/>
<stop offset="1" stop-color="#A68768"/>
</linearGradient>
<linearGradient id="paint13_linear_602_153" x1="138.392" y1="77.6245" x2="110.86" y2="61.8389" gradientUnits="userSpaceOnUse">
<stop stop-color="#EDD4B6"/>
<stop offset="0.33" stop-color="#CDB193"/>
<stop offset="0.49" stop-color="#BFA284"/>
<stop offset="0.8" stop-color="#AC8E6F"/>
<stop offset="1" stop-color="#A68768"/>
</linearGradient>
<linearGradient id="paint14_linear_602_153" x1="150.936" y1="72.2521" x2="143.302" y2="67.8739" gradientUnits="userSpaceOnUse">
<stop stop-color="#EDD4B6"/>
<stop offset="0.33" stop-color="#CDB193"/>
<stop offset="0.49" stop-color="#BFA284"/>
<stop offset="0.8" stop-color="#AC8E6F"/>
<stop offset="1" stop-color="#A68768"/>
</linearGradient>
<linearGradient id="paint15_linear_602_153" x1="150.936" y1="72.2521" x2="143.302" y2="67.8739" gradientUnits="userSpaceOnUse">
<stop stop-color="#EDD4B6"/>
<stop offset="0.33" stop-color="#CDB193"/>
<stop offset="0.49" stop-color="#BFA284"/>
<stop offset="0.8" stop-color="#AC8E6F"/>
<stop offset="1" stop-color="#A68768"/>
</linearGradient>
<linearGradient id="paint16_linear_602_153" x1="99.3844" y1="72.1264" x2="49.0518" y2="43.2736" gradientUnits="userSpaceOnUse">
<stop stop-color="#EDD4B6"/>
<stop offset="0.33" stop-color="#CDB193"/>
<stop offset="0.49" stop-color="#BFA284"/>
<stop offset="0.8" stop-color="#AC8E6F"/>
<stop offset="1" stop-color="#A68768"/>
</linearGradient>
<linearGradient id="paint17_linear_602_153" x1="24.2854" y1="75.4715" x2="4.18144" y2="63.9465" gradientUnits="userSpaceOnUse">
<stop stop-color="#EDD4B6"/>
<stop offset="0.33" stop-color="#CDB193"/>
<stop offset="0.49" stop-color="#BFA284"/>
<stop offset="0.8" stop-color="#AC8E6F"/>
<stop offset="1" stop-color="#A68768"/>
</linearGradient>
<linearGradient id="paint18_linear_602_153" x1="40.0431" y1="77.6246" x2="12.5114" y2="61.839" gradientUnits="userSpaceOnUse">
<stop stop-color="#EDD4B6"/>
<stop offset="0.33" stop-color="#CDB193"/>
<stop offset="0.49" stop-color="#BFA284"/>
<stop offset="0.8" stop-color="#AC8E6F"/>
<stop offset="1" stop-color="#A68768"/>
</linearGradient>
<linearGradient id="paint19_linear_602_153" x1="7.73882" y1="71.9566" x2="-0.182948" y2="67.4172" gradientUnits="userSpaceOnUse">
<stop stop-color="#EDD4B6"/>
<stop offset="0.33" stop-color="#CDB193"/>
<stop offset="0.49" stop-color="#BFA284"/>
<stop offset="0.8" stop-color="#AC8E6F"/>
<stop offset="1" stop-color="#A68768"/>
</linearGradient>
<linearGradient id="paint20_linear_602_153" x1="7.73882" y1="71.9566" x2="-0.182948" y2="67.4172" gradientUnits="userSpaceOnUse">
<stop stop-color="#EDD4B6"/>
<stop offset="0.33" stop-color="#CDB193"/>
<stop offset="0.49" stop-color="#BFA284"/>
<stop offset="0.8" stop-color="#AC8E6F"/>
<stop offset="1" stop-color="#A68768"/>
</linearGradient>
<clipPath id="clip0_602_153">
<rect width="151" height="155" fill="white" transform="translate(0 0.875)"/>
</clipPath>
</defs>
</svg>
