<?xml version="1.0" encoding="UTF-8"?>
<svg id="Layer_2" data-name="Layer 2" xmlns="http://www.w3.org/2000/svg" xmlns:xlink="http://www.w3.org/1999/xlink" viewBox="0 0 659.38 672.06">
  <defs>
    <style>
      .cls-1 {
        fill: url(#linear-gradient-8);
      }

      .cls-2 {
        fill: url(#linear-gradient-7);
      }

      .cls-3 {
        fill: url(#linear-gradient-5);
      }

      .cls-4 {
        fill: url(#linear-gradient-6);
      }

      .cls-5 {
        fill: url(#linear-gradient-9);
      }

      .cls-6 {
        fill: url(#linear-gradient-4);
      }

      .cls-7 {
        fill: url(#linear-gradient-3);
      }

      .cls-8 {
        fill: url(#linear-gradient-2);
      }

      .cls-9 {
        fill: url(#linear-gradient);
      }

      .cls-10 {
        fill: url(#linear-gradient-10);
      }

      .cls-11 {
        fill: url(#linear-gradient-11);
      }

      .cls-12 {
        fill: url(#linear-gradient-12);
      }

      .cls-13 {
        fill: url(#linear-gradient-13);
      }

      .cls-14 {
        fill: url(#linear-gradient-19);
      }

      .cls-15 {
        fill: url(#linear-gradient-14);
      }

      .cls-16 {
        fill: url(#linear-gradient-21);
      }

      .cls-17 {
        fill: url(#linear-gradient-20);
      }

      .cls-18 {
        fill: url(#linear-gradient-15);
      }

      .cls-19 {
        fill: url(#linear-gradient-16);
      }

      .cls-20 {
        fill: url(#linear-gradient-17);
      }

      .cls-21 {
        fill: url(#linear-gradient-18);
      }
    </style>
    <linearGradient id="linear-gradient" x1="267.21" y1="666.11" x2="155.86" y2="601.83" gradientUnits="userSpaceOnUse">
      <stop offset="0" stop-color="#edd4b6"/>
      <stop offset=".33" stop-color="#cdb193"/>
      <stop offset=".49" stop-color="#bfa284"/>
      <stop offset=".8" stop-color="#ac8e6f"/>
      <stop offset="1" stop-color="#a68768"/>
    </linearGradient>
    <linearGradient id="linear-gradient-2" x1="351.47" y1="668.7" x2="284.41" y2="629.98" xlink:href="#linear-gradient"/>
    <linearGradient id="linear-gradient-3" x1="432.14" y1="652.15" x2="358.62" y2="609.7" xlink:href="#linear-gradient"/>
    <linearGradient id="linear-gradient-4" x1="521.86" y1="668.7" x2="454.79" y2="629.98" xlink:href="#linear-gradient"/>
    <linearGradient id="linear-gradient-5" x1="435.45" y1="422.01" x2="348.75" y2="371.95" xlink:href="#linear-gradient"/>
    <linearGradient id="linear-gradient-6" x1="363.56" y1="464.56" x2="133.06" y2="331.48" xlink:href="#linear-gradient"/>
    <linearGradient id="linear-gradient-7" x1="443.53" y1="236.47" x2="375.59" y2="197.24" xlink:href="#linear-gradient"/>
    <linearGradient id="linear-gradient-8" x1="336.08" y1="264.54" x2="155.41" y2="160.24" xlink:href="#linear-gradient"/>
    <linearGradient id="linear-gradient-9" x1="104.3" y1="322.44" x2="20.31" y2="273.94" xlink:href="#linear-gradient"/>
    <linearGradient id="linear-gradient-10" x1="173.12" y1="331.77" x2="56.8" y2="264.61" xlink:href="#linear-gradient"/>
    <linearGradient id="linear-gradient-11" x1="33.79" y1="308.21" x2="-.67" y2="288.31" xlink:href="#linear-gradient"/>
    <linearGradient id="linear-gradient-12" x1="33.79" y1="308.21" x2="-.67" y2="288.31" xlink:href="#linear-gradient"/>
    <linearGradient id="linear-gradient-13" x1="639.07" y1="322.44" x2="555.08" y2="273.94" gradientTransform="translate(1194.15 596.38) rotate(-180)" xlink:href="#linear-gradient"/>
    <linearGradient id="linear-gradient-14" x1="602.58" y1="331.77" x2="486.26" y2="264.61" gradientTransform="translate(1088.84 596.38) rotate(180)" xlink:href="#linear-gradient"/>
    <linearGradient id="linear-gradient-15" x1="659.1" y1="309.48" x2="625.87" y2="290.3" xlink:href="#linear-gradient"/>
    <linearGradient id="linear-gradient-16" x1="659.1" y1="309.48" x2="625.87" y2="290.3" xlink:href="#linear-gradient"/>
    <linearGradient id="linear-gradient-17" x1="433.98" y1="308.94" x2="214.97" y2="182.5" xlink:href="#linear-gradient"/>
    <linearGradient id="linear-gradient-18" x1="104.3" y1="322.44" x2="20.31" y2="273.94" xlink:href="#linear-gradient"/>
    <linearGradient id="linear-gradient-19" x1="173.12" y1="331.77" x2="56.8" y2="264.61" xlink:href="#linear-gradient"/>
    <linearGradient id="linear-gradient-20" x1="33.79" y1="308.21" x2="-.67" y2="288.31" xlink:href="#linear-gradient"/>
    <linearGradient id="linear-gradient-21" x1="33.79" y1="308.21" x2="-.67" y2="288.31" xlink:href="#linear-gradient"/>
  </defs>
  <g id="Layer_4" data-name="Layer 4">
    <g>
      <g>
        <path class="cls-9" d="M161.67,660.77v9.26h-14.08v-1.27h2.03c2.28,0,4.31-.7,6.09-2.09,1.78-1.4,2.83-3.36,3.17-5.9h2.79ZM168.78,579.45h1.14l3.17,9.26-7.74,81.32h-7.61l11.04-90.58ZM165.98,662.8v.63c0,1.35.49,2.6,1.46,3.74.97,1.14,2.14,1.71,3.49,1.71h1.9v1.14h-7.74v-7.23h.89ZM169.92,579.45l38.19,75.36-4.31,17.25-36.54-73.08,2.66-19.54ZM242.36,579.45l1.01,10.28-33.75,69.02c-1.44,2.96-2.52,5.45-3.23,7.48-.72,2.03-1.16,3.97-1.33,5.84h-1.27l-2.79-9.01,41.36-83.61ZM240.71,662.8h.89v7.23h-7.74v-1.14h1.9c1.44,0,2.62-.57,3.55-1.71.93-1.14,1.4-2.39,1.4-3.74v-.63ZM243.5,579.45l11.29,90.58h-13.45l-6.72-70.67,7.74-19.92h1.14ZM250.99,660.77h2.66c.42,2.54,1.52,4.5,3.3,5.9,1.78,1.4,3.76,2.09,5.96,2.09h2.03v1.27h-13.96v-9.26Z"/>
        <path class="cls-8" d="M283.34,661.03c-.93,2.45-.8,4.36.38,5.71,1.18,1.35,2.54,2.03,4.06,2.03h1.01v1.27h-24.61v-1.27h1.01c1.69,0,3.47-.59,5.33-1.78,1.86-1.18,3.47-3.17,4.82-5.96h7.99ZM307.57,591.63l.76,10.91-28.55,67.11h-8.5l29.94-64.19c.08-.17.38-.83.89-1.97.51-1.14,1.08-2.47,1.71-4,.63-1.52,1.22-3,1.78-4.44.55-1.44.87-2.58.95-3.43h1.02ZM321.27,641.99v4.19h-33.24v-4.19h33.24ZM307.57,591.63l35.78,77.64h-13.83l-25.88-62.42,3.93-15.22ZM326.22,661.03h13.45c1.27,2.79,2.83,4.78,4.69,5.96,1.86,1.19,3.64,1.78,5.33,1.78h1.02v1.27h-29.81v-1.27h1.02c1.44,0,2.75-.68,3.93-2.03,1.18-1.35,1.31-3.25.38-5.71Z"/>
        <path class="cls-7" d="M430.25,638.06l-.38,18.02c-2.03,3.13-4.72,5.88-8.06,8.25-3.34,2.37-7.19,4.21-11.55,5.52-4.36,1.31-9.11,1.97-14.27,1.97-8.88-.09-16.56-1.73-23.03-4.95-6.47-3.21-11.44-7.76-14.91-13.64-3.47-5.88-5.2-12.96-5.2-21.25s1.73-15.39,5.2-21.31c3.47-5.92,8.44-10.49,14.91-13.7,6.47-3.21,14.15-4.82,23.03-4.82,5.41,0,10.72.63,15.92,1.9,5.2,1.27,9.66,3,13.38,5.2l1.9,18.65h-1.14c-1.95-7.78-5.56-13.32-10.85-16.62-5.29-3.3-11.57-4.95-18.84-4.95-6.51,0-12.07,1.46-16.68,4.38-4.61,2.92-8.16,7.02-10.66,12.31-2.5,5.29-3.74,11.57-3.74,18.84s1.25,13.45,3.74,18.78c2.49,5.33,6.03,9.43,10.59,12.31,4.57,2.88,10.02,4.4,16.37,4.57,6.26,0,11.74-1.02,16.43-3.04,4.69-2.03,8.5-5.2,11.42-9.52,2.92-4.31,4.71-9.94,5.39-16.87h1.02Z"/>
        <path class="cls-6" d="M453.72,661.03c-.93,2.45-.8,4.36.38,5.71,1.18,1.35,2.54,2.03,4.06,2.03h1.02v1.27h-24.61v-1.27h1.02c1.69,0,3.47-.59,5.33-1.78,1.86-1.18,3.47-3.17,4.82-5.96h7.99ZM477.95,591.63l.76,10.91-28.55,67.11h-8.5l29.94-64.19c.08-.17.38-.83.89-1.97.51-1.14,1.08-2.47,1.71-4,.63-1.52,1.22-3,1.78-4.44.55-1.44.87-2.58.95-3.43h1.02ZM491.66,641.99v4.19h-33.24v-4.19h33.24ZM477.95,591.63l35.78,77.64h-13.83l-25.88-62.42,3.93-15.22ZM496.6,661.03h13.45c1.27,2.79,2.83,4.78,4.69,5.96,1.86,1.19,3.64,1.78,5.33,1.78h1.02v1.27h-29.81v-1.27h1.02c1.44,0,2.75-.68,3.93-2.03,1.18-1.35,1.31-3.25.38-5.71Z"/>
      </g>
      <g>
        <path class="cls-3" d="M347.6,419.76c-.55-15.32-2.2-55.75,26.24-86.94,42.28-46.37,85.28-51.14,125.96-46.22,0,0-23.18,23.76-30.38,56.8-7.57,34.74-10.88,41.39-23.15,56.8-18,22.61-31.53,14.05-62.21,41.7-11.53,10.39-28.18,25.78-35.45,51.05-4.84,16.84-3.69,31.72-2.17,40.99l-7.44,4.93s-1.15-130.98,108.05-217.57c0,0-71.69,18.64-99.2,109.79l-.25-11.34Z"/>
        <path class="cls-4" d="M312.37,418.49c.55-15.41,2.2-56.09-26.24-87.47-42.28-46.65-85.28-51.45-125.96-46.5,0,0,23.18,23.9,30.38,57.15.19.88.39,1.76.59,2.63,7.09,30.12,26.24,55.98,52.52,72.32,9.86,6.13,21.24,14.18,32.25,24.16,11.53,10.45,28.18,25.94,35.45,51.36,4.84,16.94,3.69,31.91,2.17,41.23l7.44,4.96s1.15-131.78-108.05-218.89c0,0,71.69,18.76,99.2,110.46l.25-11.41Z"/>
        <path class="cls-2" d="M344.87,304.4c3.02-5.85,7.99-14.05,15.93-22.16,9.9-10.11,19.41-14.96,29.41-20.41,15.21-8.3,30.14-17.14,44.63-26.64,34.98-22.94,55.01-96.88,55.01-96.88-46.55.82-80.66,22.3-86.51,26.34-25.11,17.36-40.35,56.79-44.97,72.96,0,0,34.6-43.94,86.5-56.4,0,0-90.47,59.73-100.01,123.19Z"/>
        <path class="cls-1" d="M313.06,304.4c-3.02-5.85-7.99-14.05-15.93-22.16-9.9-10.11-19.41-14.96-29.41-20.41-15.21-8.3-30.14-17.14-44.63-26.64-34.98-22.94-55.01-96.88-55.01-96.88,46.55.82,80.66,22.3,86.51,26.34,25.11,17.36,40.35,56.79,44.97,72.96,0,0-34.6-43.94-86.5-56.4,0,0,90.47,59.73,100.01,123.19Z"/>
        <rect class="cls-5" x="45.85" y="217.66" width="32.9" height="161.06" rx="16.45" ry="16.45"/>
        <rect class="cls-10" x="98.51" y="180.34" width="32.9" height="235.71" rx="16.45" ry="16.45"/>
        <path class="cls-11" d="M25.24,278.73v39.93c0,11.47-6.95,10.59-14.21,5.86-13.26-8.64-17.38-46.24,3.67-53.22,1.9-.63,3.97-.76,5.86-.1,2.24.79,4.68,2.75,4.68,7.52Z"/>
        <path class="cls-12" d="M25.24,278.73v39.93c0,11.47-6.95,10.59-14.21,5.86-13.26-8.64-17.38-46.24,3.67-53.22,1.9-.63,3.97-.76,5.86-.1,2.24.79,4.68,2.75,4.68,7.52Z"/>
        <rect class="cls-13" x="580.62" y="217.66" width="32.9" height="161.06" rx="16.45" ry="16.45" transform="translate(1194.15 596.38) rotate(180)"/>
        <rect class="cls-15" x="527.97" y="180.34" width="32.9" height="235.71" rx="16.45" ry="16.45" transform="translate(1088.84 596.38) rotate(-180)"/>
        <path class="cls-18" d="M634.14,278.73v39.93c0,11.47,6.95,10.59,14.21,5.86,13.26-8.64,17.38-46.24-3.67-53.22-1.9-.63-3.97-.76-5.86-.1-2.24.79-4.68,2.75-4.68,7.52Z"/>
        <path class="cls-19" d="M634.14,278.73v39.93c0,11.47,6.95,10.59,14.21,5.86,13.26-8.64,17.38-46.24-3.67-53.22-1.9-.63-3.97-.76-5.86-.1-2.24.79-4.68,2.75-4.68,7.52Z"/>
        <path class="cls-20" d="M329.81,0s-51.46,50.53-51.4,91.65c.07,46.73,26.56,68.13,35.69,93.63,2.18,6.09,6.35,18.13,6.68,38.2,1.32,79.04,4.46,271.47,4.46,271.47l1.46-.21c-5.9-144.9-1.39-421.76,7.72-436.76,1.41,47.63.07,219.23.61,370.41,1.18-72.91,4.1-185.67,5.17-222.71,1-34.47,35.65-57.16,40.86-93.47,4.97-34.63-22.22-90.65-51.26-112.22Z"/>
        <rect class="cls-21" x="45.85" y="217.66" width="32.9" height="161.06" rx="16.45" ry="16.45"/>
        <rect class="cls-14" x="98.51" y="180.34" width="32.9" height="235.71" rx="16.45" ry="16.45"/>
        <path class="cls-17" d="M25.24,278.73v39.93c0,11.47-6.95,10.59-14.21,5.86-13.26-8.64-17.38-46.24,3.67-53.22,1.9-.63,3.97-.76,5.86-.1,2.24.79,4.68,2.75,4.68,7.52Z"/>
        <path class="cls-16" d="M25.24,278.73v39.93c0,11.47-6.95,10.59-14.21,5.86-13.26-8.64-17.38-46.24,3.67-53.22,1.9-.63,3.97-.76,5.86-.1,2.24.79,4.68,2.75,4.68,7.52Z"/>
      </g>
    </g>
  </g>
</svg>